<svg xmlns="http://www.w3.org/2000/svg" viewBox="0 0 894.33 115.8"><defs><style>.cls-1{fill:#2b347b;}.cls-2{fill:#4089c5;}.cls-3{fill:#e35680;}.cls-4{fill:none;}</style></defs><g id="Layer_2" data-name="Layer 2"><g id="Layer_1-2" data-name="Layer 1"><path class="cls-1" d="M561.4,31.2c-7.3,0-13.1,1.5-17,5.3L540,40.9h-5.5c-4.2-6.5-11.4-9.8-22-9.8-7.3,0-13.1,1.5-17,5.3l-4.4,4.4h-4.4l-2.1-8.2H469.3v80.3h20.6V63.7c0-9.5,4.9-14.4,14.7-14.4,9.2,0,13.4,4.4,13.4,14.4v49.2h20.6V63.4l.2.2c0-9.4,4.9-14.2,14.7-14.2,9.2,0,13.5,4.4,13.5,14.4V113h20.6V58.3c-.1-18.1-8.6-27.1-26.2-27.1M693.6,95.6h22.2V49.9H696.2V32.7h34.4l2,8.2h4.6l4.4-4.4c3.7-3.8,9.5-5.3,17-5.3h13V49.7H751.2c-9.8,0-14.8,4.7-14.8,13.4V95.6h25.7V113H693.7V95.6Zm-57,3.6c10.5,0,16.5-5.5,16.5-15.1v-5H637.4c-8.7,0-13.1,3.7-13.1,10.4-.1,5.8,3.5,9.7,12.3,9.7m-33.3-7.8c0-15.9,10.5-24.3,28.9-24.3h20.9v-6c0-9.9-4.4-14.1-13.6-14.1-7.8,0-13.3,3.1-13.9,10.5H607c.6-16.7,12.2-26.4,34.2-26.4s32.5,9.5,32.5,29V113H657.8l-2-8.2h-4.4l-4.4,4.4c-3.7,3.7-9.5,5.4-17.3,5.4-17.2,0-26.4-8.3-26.4-23.2M405.5,79.3h-9v33.8H375.9V0h20.6V61h9.3l21.1-28.3h23.5L423,70.1,451.3,113H427Zm-125-6.4c0-28.3,13.1-41.7,38.2-41.7,22.9,0,35,11.3,35.6,32.2h-20c-.9-10.2-6.1-14.8-15.6-14.8-11.8,0-17,7-17,24.3s5.2,24.3,17,24.3c9.6,0,15-4.6,15.7-15.7h20.3c-.6,21.7-13,33.2-36,33.2-25.1-.1-38.2-13.7-38.2-41.8m-37.4-9.5c-.3-11-5.7-17-16.4-17-10.2,0-15.9,5.3-17.7,17Zm-54.8,9.5c0-28.3,13.3-41.7,38.5-41.7,26.1,0,38.2,14.1,35.3,45.2H208.6C209.4,92.3,215,99,226.9,99c8.7,0,14.5-3.5,15.9-10.7h18.9c-1.8,16.6-14.5,26.3-35.4,26.3-24.9,0-38-13.6-38-41.7M98.3,0h20.6V26.7l-1.8,13.1,4.3,1.1,4.4-4.4c3.8-3.8,9.2-5.3,16.3-5.3,17.3,0,25.5,9,25.5,27.2v54.7H147V63.9c0-9.9-4.3-14.4-13.4-14.4-9.8,0-14.7,4.9-14.7,14.4v49.2H98.3V0ZM0,60.4C0,22.1,12.4,5.3,40.6,5.3,66,5.3,78.2,19,79.3,47.8H58.4c-.8-15.9-6.3-23.2-17.7-23.2-13.4,0-18.8,9.9-18.8,35.9,0,26.7,5,35.9,18.8,35.9,11.8,0,17.1-6.6,18-23.5H79.9c-1.2,29-13.9,42.8-39.3,42.8C12.4,115.5,0,98.7,0,60.4"/><path class="cls-2" d="M876.8,10.6,830.9,60.3a2.74,2.74,0,0,1-3.6.1L803.7,33l-.1-.1a10.31,10.31,0,0,0-15.2.7,9.44,9.44,0,0,0-2.2,7.2,10.6,10.6,0,0,0,3.2,6.8L816.5,71a2.54,2.54,0,0,1,0,3.5L789.4,97.9l-.1.1a10.43,10.43,0,0,0-3.1,7.5,10,10,0,0,0,3.2,7.5,11.55,11.55,0,0,0,3.3,2.1,10.22,10.22,0,0,0,7.5-.1,11.17,11.17,0,0,0,3.5-2.3l23.6-27.3a2.73,2.73,0,0,1,3.5-.1l23.6,27.4.1.1a9.49,9.49,0,0,0,3.4,2.2,10,10,0,0,0,3.8.8,9.37,9.37,0,0,0,3.7-.7,11.55,11.55,0,0,0,3.3-2.1,10,10,0,0,0,3.2-7.5,10.7,10.7,0,0,0-3.2-7.5L841.6,74.7a2.41,2.41,0,0,1-.7-1.8,2.87,2.87,0,0,1,.7-1.8l49.6-45.9a10.75,10.75,0,0,0,3.1-6.8,10.17,10.17,0,0,0-2.2-7.2h0a10.28,10.28,0,0,0-7.5-3.7h-.5a10.49,10.49,0,0,0-7.3,3.1"/><path class="cls-3" d="M894.3,18.5a10.17,10.17,0,0,0-2.2-7.2h0a10.28,10.28,0,0,0-7.5-3.7h-.5a10.31,10.31,0,0,0-7.3,3.1L830.9,60.4a2.74,2.74,0,0,1-3.6.1L803.7,33.1l-.1-.1a10.31,10.31,0,0,0-15.2.7,9.44,9.44,0,0,0-2.2,7.2,10.6,10.6,0,0,0,3.2,6.8l20.7,17.8,7.9,6.8a17.09,17.09,0,0,0,22.7-.4l6.1-5.6,44.4-41a11.24,11.24,0,0,0,3.1-6.8"/><line class="cls-4" x1="771.6" y1="65" x2="771.6" y2="50.8"/></g></g></svg>